<svg width="24" height="24" viewBox="0 0 24 24" fill="none" xmlns="http://www.w3.org/2000/svg">
<path fill-rule="evenodd" clip-rule="evenodd" d="M8.59912 9.27977C8.59912 8.37797 8.95736 7.5131 9.59503 6.87543C10.2327 6.23776 11.0976 5.87952 11.9994 5.87952C12.9012 5.87952 13.766 6.23776 14.4037 6.87543C15.0414 7.5131 15.3996 8.37797 15.3996 9.27977C15.3996 10.1816 15.0414 11.0464 14.4037 11.6841C13.766 12.3218 12.9012 12.68 11.9994 12.68C11.0976 12.68 10.2327 12.3218 9.59503 11.6841C8.95736 11.0464 8.59912 10.1816 8.59912 9.27977ZM11.9994 7.23962C11.4583 7.23962 10.9394 7.45456 10.5568 7.83716C10.1742 8.21977 9.95922 8.73869 9.95922 9.27977C9.95922 9.82085 10.1742 10.3398 10.5568 10.7224C10.9394 11.105 11.4583 11.3199 11.9994 11.3199C12.5405 11.3199 13.0594 11.105 13.442 10.7224C13.8246 10.3398 14.0395 9.82085 14.0395 9.27977C14.0395 8.73869 13.8246 8.21977 13.442 7.83716C13.0594 7.45456 12.5405 7.23962 11.9994 7.23962Z" fill="#808080"/>
<path fill-rule="evenodd" clip-rule="evenodd" d="M2.25244 12C2.25244 6.61672 6.61655 2.25261 11.9998 2.25261C17.3831 2.25261 21.7472 6.61672 21.7472 12C21.7472 17.3833 17.3831 21.7474 11.9998 21.7474C6.61655 21.7474 2.25244 17.3833 2.25244 12ZM11.9998 3.61271C10.343 3.61279 8.72321 4.1036 7.34497 5.02323C5.96673 5.94286 4.89175 7.2501 4.25565 8.78001C3.61956 10.3099 3.45084 11.994 3.7708 13.6197C4.09076 15.2454 4.88506 16.7399 6.05347 17.9146C6.21668 17.0324 6.53857 16.2009 7.18326 15.5317C8.14893 14.5307 9.69129 14.0402 11.9998 14.0402C14.3084 14.0402 15.8507 14.5307 16.8155 15.5317C17.4611 16.2009 17.7821 17.0324 17.9462 17.9155C19.1149 16.7408 19.9095 15.2462 20.2296 13.6204C20.5498 11.9945 20.3811 10.3103 19.745 8.78019C19.1089 7.25009 18.0337 5.94271 16.6553 5.02303C15.2769 4.10336 13.6569 3.61261 11.9998 3.61271ZM16.7094 18.9411C16.6169 17.8421 16.3785 17.0369 15.8371 16.4756C15.2478 15.8654 14.157 15.4003 11.9998 15.4003C9.84271 15.4003 8.75191 15.8654 8.16254 16.4756C7.62121 17.0378 7.38274 17.8421 7.29026 18.942C8.67899 19.8865 10.3203 20.3902 11.9998 20.3873C13.6794 20.3899 15.3208 19.8859 16.7094 18.9411Z" fill="#808080"/>
</svg>
