<svg width="24" height="24" viewBox="0 0 24 24" fill="none" xmlns="http://www.w3.org/2000/svg">
<path d="M13.2943 2.26369C12.0562 2.26369 11.0572 2.26369 10.272 2.36965C9.45684 2.47834 8.77032 2.71382 8.22508 3.25815C7.75049 3.73364 7.50958 4.31782 7.38368 5.00435C7.26141 5.67185 7.23787 6.48789 7.23243 7.46786C7.23147 7.64802 7.30212 7.82117 7.42883 7.94924C7.55554 8.07731 7.72793 8.1498 7.90809 8.15076C8.08824 8.15172 8.2614 8.08108 8.38947 7.95437C8.51754 7.82766 8.59003 7.65526 8.59099 7.47511C8.59642 6.48517 8.62178 5.78325 8.7196 5.24979C8.8147 4.73716 8.96595 4.43919 9.18603 4.2191C9.43691 3.96822 9.78923 3.80519 10.454 3.71553C11.1378 3.62405 12.0444 3.62224 13.3441 3.62224H14.2498C15.5504 3.62224 16.457 3.62405 17.1408 3.71553C17.8056 3.80519 18.157 3.96913 18.4088 4.2191C18.6588 4.46998 18.8218 4.82139 18.9115 5.48709C19.0039 6.16999 19.0048 7.0775 19.0048 8.37719V15.6228C19.0048 16.9225 19.0039 17.8291 18.9115 18.5138C18.8218 19.1786 18.6588 19.53 18.4079 19.7809C18.157 20.0318 17.8056 20.1948 17.1408 20.2845C16.457 20.3759 15.5504 20.3778 14.2498 20.3778H13.3441C12.0444 20.3778 11.1378 20.3759 10.4531 20.2845C9.78923 20.1948 9.43691 20.0309 9.18603 19.7809C8.96595 19.5599 8.8147 19.2628 8.7196 18.7502C8.62178 18.2167 8.59642 17.5148 8.59099 16.5249C8.59051 16.4357 8.57247 16.3475 8.53789 16.2652C8.50332 16.183 8.45288 16.1084 8.38947 16.0456C8.32606 15.9829 8.25091 15.9333 8.16831 15.8996C8.08572 15.8659 7.99729 15.8488 7.90809 15.8492C7.81888 15.8497 7.73065 15.8678 7.64841 15.9023C7.56618 15.9369 7.49157 15.9873 7.42883 16.0508C7.36609 16.1142 7.31645 16.1893 7.28275 16.2719C7.24906 16.3545 7.23196 16.4429 7.23243 16.5321C7.23787 17.5121 7.26141 18.3282 7.38368 18.9957C7.51048 19.6822 7.75049 20.2664 8.22599 20.7419C8.77032 21.2871 9.45775 21.5208 10.2729 21.6313C11.0572 21.7363 12.0562 21.7363 13.2943 21.7363H14.2996C15.5386 21.7363 16.5367 21.7363 17.322 21.6313C18.1371 21.5208 18.8236 21.2871 19.3689 20.7419C19.9141 20.1966 20.1478 19.5101 20.2583 18.695C20.3633 17.9097 20.3633 16.9107 20.3633 15.6726V8.32737C20.3633 7.08928 20.3633 6.09028 20.2583 5.30504C20.1487 4.48991 19.9141 3.80338 19.3689 3.25815C18.8236 2.71292 18.1371 2.47924 17.322 2.36965C16.5367 2.26369 15.5377 2.26369 14.2996 2.26369H13.2943Z" fill="#808080"/>
<path d="M1.57088 11.3199C1.39072 11.3199 1.21795 11.3915 1.09056 11.5189C0.963168 11.6462 0.891602 11.819 0.891602 11.9992C0.891602 12.1793 0.963168 12.3521 1.09056 12.4795C1.21795 12.6069 1.39072 12.6785 1.57088 12.6785H12.4149L10.6388 14.2C10.571 14.2581 10.5153 14.3289 10.4749 14.4085C10.4344 14.488 10.4101 14.5748 10.4032 14.6638C10.3893 14.8435 10.4473 15.0214 10.5645 15.1583C10.6817 15.2952 10.8485 15.3799 11.0283 15.3939C11.208 15.4078 11.3858 15.3498 11.5227 15.2325L14.6927 12.5154C14.7673 12.4517 14.8272 12.3725 14.8682 12.2834C14.9093 12.1943 14.9305 12.0973 14.9305 11.9992C14.9305 11.9011 14.9093 11.8041 14.8682 11.715C14.8272 11.6259 14.7673 11.5467 14.6927 11.4829L11.5227 8.76582C11.3858 8.6486 11.208 8.59057 11.0283 8.6045C10.8485 8.61842 10.6817 8.70317 10.5645 8.84009C10.4473 8.977 10.3893 9.15488 10.4032 9.33459C10.4171 9.51429 10.5019 9.6811 10.6388 9.79832L12.414 11.3199H1.57178H1.57088Z" fill="#808080"/>
</svg>
