<svg width="24" height="24" viewBox="0 0 24 24" fill="none" xmlns="http://www.w3.org/2000/svg">
<g clip-path="url(#clip0_476_2737)">
<path d="M7 17L17 7M7.62476 7.62494H8.37476M7.62476 8.37494H8.37476M15.6248 15.6249H16.3748M15.6248 16.3749H16.3748M23 12C23 18.0751 18.0751 23 12 23C5.92487 23 1 18.0751 1 12C1 5.92487 5.92487 1 12 1C18.0751 1 23 5.92487 23 12ZM9 8C9 8.55228 8.55229 9 8 9C7.44772 9 7 8.55228 7 8C7 7.44772 7.44772 7 8 7C8.55229 7 9 7.44772 9 8ZM17 16C17 16.5523 16.5523 17 16 17C15.4477 17 15 16.5523 15 16C15 15.4477 15.4477 15 16 15C16.5523 15 17 15.4477 17 16Z" stroke="#808080" stroke-width="1.5" stroke-linecap="round"/>
</g>
<defs>
<clipPath id="clip0_476_2737">
<rect width="24" height="24" fill="white"/>
</clipPath>
</defs>
</svg>
